<?xml version="1.0" encoding="utf-8"?><svg viewBox="0 0 57 32" xmlns="http://www.w3.org/2000/svg" xmlns:xlink="http://www.w3.org/1999/xlink"><style>:root>svg{display:none}:root>svg:target{display:block}</style><svg fill="none" viewBox="0 0 57 32" id="amex" xmlns="http://www.w3.org/2000/svg"><path fill-rule="evenodd" clip-rule="evenodd" d="M10.224 10 5.033 21.826h6.215l.77-1.885h1.761l.771 1.886h6.84v-1.44l.61 1.44h3.54l.609-1.47v1.47h14.227l1.73-1.837 1.62 1.837 7.307.015-5.208-5.896L51.033 10h-7.194l-1.684 1.803L40.586 10H25.109l-1.33 3.053L22.42 10h-6.201v1.39l-.69-1.39h-5.305Zm1.203 1.68h3.03l3.443 8.019v-8.02h3.319l2.66 5.75 2.45-5.75h3.304v8.487h-2.01l-.016-6.65-2.93 6.65H22.88l-2.945-6.65v6.65h-4.134l-.783-1.903h-4.235l-.782 1.901H7.787l3.64-8.485v.001Zm28.213 0h-8.17v8.48h8.043l2.593-2.81 2.499 2.81h2.612l-3.797-4.215 3.797-4.266h-2.499l-2.58 2.779-2.498-2.779v.001ZM12.9 13.115l-1.394 3.39h2.788l-1.393-3.39H12.9Zm20.587 1.87v-1.55h5.098l2.224 2.477-2.323 2.492h-4.999v-1.692h4.457v-1.726h-4.457v-.001Z" fill="#5C5F6A"/></svg><svg fill="none" viewBox="0 0 14 12" id="arrow" xmlns="http://www.w3.org/2000/svg"><path fill-rule="evenodd" clip-rule="evenodd" d="M13.29 5.496a.71.71 0 0 1 0 1.008L7.754 12l-1.016-1.008L11.766 6 6.738 1.008 7.754 0l5.536 5.496Z" fill="#fff"/><path fill-rule="evenodd" clip-rule="evenodd" d="M12.997 6.713H.5V5.287h12.497v1.426Z" fill="#fff"/></svg><svg fill="none" viewBox="0 0 20 21" id="cart" xmlns="http://www.w3.org/2000/svg"><path d="M1 1.5h3.383L5.59 13.477a1.384 1.384 0 0 0 1.385 1.177h8.728a1.386 1.386 0 0 0 1.385-.942l1.843-5.538a1.383 1.383 0 0 0-.194-1.246 1.385 1.385 0 0 0-1.191-.582H4.868"/><path d="M15.467 19.5a.693.693 0 1 1 0-1.386.693.693 0 0 1 0 1.386ZM6.461 19.5a.693.693 0 1 1 0-1.386.693.693 0 0 1 0 1.386Z" fill="#5C5F6A"/><path d="M9.562 9.115v2.77M13.718 9.115v2.77"/></svg><svg fill="none" viewBox="0 0 20 20" id="close" xmlns="http://www.w3.org/2000/svg"><path d="M15 5 5 15M5 5l10 10" stroke="#5C5F6A" stroke-width="1.7" stroke-linecap="round" stroke-linejoin="round"/></svg><svg fill="none" viewBox="0 0 24 24" id="copy" xmlns="http://www.w3.org/2000/svg"><path d="M14.143 7V5.571a1.429 1.429 0 0 0-1.429-1.428h-1.428M7.714 17H4.143a1.429 1.429 0 0 1-1.429-1.429v-10a1.429 1.429 0 0 1 1.429-1.428h1.429M19.857 9.857h-7.143c-.789 0-1.428.64-1.428 1.429v8.571c0 .79.64 1.429 1.428 1.429h7.143c.79 0 1.429-.64 1.429-1.429v-8.571c0-.79-.64-1.429-1.429-1.429ZM11.643 2.714H5.214L5.8 5.03a.7.7 0 0 0 .686.542h3.885a.7.7 0 0 0 .686-.542l.586-2.315ZM14.143 14.143h4.285M14.143 17h4.285" stroke="#5C5F6A" stroke-width="1.429" stroke-linecap="round" stroke-linejoin="round"/></svg><svg fill="none" viewBox="0 0 19 17" id="favorite" xmlns="http://www.w3.org/2000/svg"><path d="M9.505 15.5 2.29 9.051c-3.92-3.868 1.842-11.298 7.214-5.287 5.371-6.01 11.11 1.443 7.215 5.287L9.505 15.5Z"/></svg><svg viewBox="0 0 24 24" id="instagram" xmlns="http://www.w3.org/2000/svg"><path d="M11.997 6.869A5.124 5.124 0 0 0 6.867 12a5.124 5.124 0 0 0 5.13 5.131c2.84 0 5.131-2.292 5.131-5.131a5.124 5.124 0 0 0-5.13-5.131Zm0 8.466A3.342 3.342 0 0 1 8.663 12a3.342 3.342 0 0 1 3.334-3.335A3.342 3.342 0 0 1 15.332 12a3.342 3.342 0 0 1-3.335 3.335Zm5.341-9.872c-.663 0-1.198.535-1.198 1.198 0 .663.535 1.199 1.198 1.199a1.195 1.195 0 0 0 1.108-1.657 1.198 1.198 0 0 0-1.108-.74ZM21.998 12c0-1.38.013-2.75-.064-4.128-.078-1.6-.443-3.022-1.614-4.193-1.173-1.173-2.591-1.536-4.192-1.613C14.747 1.988 13.378 2 12 2c-1.381 0-2.75-.013-4.128.065-1.601.077-3.022.443-4.193 1.613-1.173 1.174-1.536 2.592-1.613 4.193C1.988 9.253 2 10.622 2 12c0 1.378-.013 2.75.065 4.128.077 1.6.443 3.022 1.613 4.193 1.174 1.173 2.592 1.536 4.193 1.613 1.381.078 2.75.065 4.128.065 1.38 0 2.75.013 4.128-.065 1.6-.077 3.021-.443 4.192-1.613 1.174-1.174 1.536-2.592 1.614-4.193.08-1.379.065-2.747.065-4.128Zm-2.2 5.899a3.179 3.179 0 0 1-.756 1.146c-.353.352-.69.573-1.146.755-1.316.523-4.44.405-5.899.405-1.458 0-4.585.118-5.901-.402a3.18 3.18 0 0 1-1.146-.756 3.201 3.201 0 0 1-.755-1.146c-.52-1.318-.403-4.442-.403-5.901 0-1.459-.118-4.586.403-5.901.182-.456.402-.796.755-1.146.353-.35.69-.573 1.146-.756 1.316-.52 4.443-.403 5.901-.403 1.459 0 4.586-.117 5.902.403.455.183.795.403 1.145.756a3.2 3.2 0 0 1 .756 1.146c.52 1.315.403 4.442.403 5.901 0 1.459.117 4.583-.406 5.899Z"/></svg><svg fill="none" viewBox="0 0 31 32" id="mastercard" xmlns="http://www.w3.org/2000/svg"><g clip-path="url(#ha)"><path d="M15.017 22.85A9.137 9.137 0 0 1 9.108 25C4.078 25 0 20.97 0 16s4.078-9 9.108-9c2.255 0 4.318.81 5.909 2.15A9.137 9.137 0 0 1 20.925 7c5.03 0 9.108 4.03 9.108 9s-4.078 9-9.108 9a9.137 9.137 0 0 1-5.908-2.15Z" fill="#2d2e33"/><path d="M15.017 22.85a8.935 8.935 0 0 0 3.2-6.85c0-2.743-1.242-5.2-3.2-6.85A9.137 9.137 0 0 1 20.925 7c5.03 0 9.108 4.03 9.108 9s-4.078 9-9.108 9a9.137 9.137 0 0 1-5.908-2.15Z" fill="#5C5F6A"/><path d="M15.017 22.85a8.937 8.937 0 0 0 3.2-6.85c0-2.743-1.242-5.2-3.2-6.85a8.936 8.936 0 0 0-3.2 6.85c0 2.743 1.241 5.2 3.2 6.85Z" fill="#595a61"/></g><defs><clipPath id="ha"><path fill="#fff" d="M0 0h30.033v32H0z"/></clipPath></defs></svg><svg fill="none" viewBox="0 0 20 20" id="minus" xmlns="http://www.w3.org/2000/svg"><path d="M4.167 10h10" stroke="#5C5F6A" stroke-width="1.7" stroke-linecap="round" stroke-linejoin="round"/></svg><svg fill="none" viewBox="0 0 16 3" id="more" xmlns="http://www.w3.org/2000/svg"><path d="M2.143 2.071a.571.571 0 0 1 0-1.142M2.143 2.071a.571.571 0 0 0 0-1.142M8 2.071A.571.571 0 0 1 8 .93M8 2.071A.571.571 0 0 0 8 .93M13.857 2.071a.571.571 0 0 1 0-1.142M13.857 2.071a.571.571 0 1 0 0-1.142"/></svg><svg fill="none" viewBox="0 0 20 20" id="plus" xmlns="http://www.w3.org/2000/svg"><path d="M10 5v10M5 10h10" stroke="#5C5F6A" stroke-width="1.7" stroke-linecap="round" stroke-linejoin="round"/></svg><svg fill="none" viewBox="0 0 24 25" id="search" xmlns="http://www.w3.org/2000/svg"><path d="M11.225 18.98a7.748 7.748 0 1 0 0-15.496 7.748 7.748 0 0 0 0 15.496ZM20.523 21.515l-3.945-3.944" stroke="#878A92" stroke-width="1.44" stroke-linecap="round" stroke-linejoin="round"/></svg><svg fill="none" viewBox="0 0 18 21" id="share" xmlns="http://www.w3.org/2000/svg"><path d="m5.969 11.859 6.071 3.582m-.009-9.882L5.97 9.141M17 4.2c0 1.491-1.194 2.7-2.667 2.7-1.472 0-2.666-1.209-2.666-2.7s1.194-2.7 2.666-2.7C15.806 1.5 17 2.709 17 4.2ZM6.333 10.5c0 1.491-1.194 2.7-2.666 2.7C2.194 13.2 1 11.991 1 10.5s1.194-2.7 2.667-2.7c1.472 0 2.666 1.209 2.666 2.7ZM17 16.8c0 1.491-1.194 2.7-2.667 2.7-1.472 0-2.666-1.209-2.666-2.7s1.194-2.7 2.666-2.7c1.473 0 2.667 1.209 2.667 2.7Z"/></svg><svg viewBox="0 0 12 7" id="spoller-arrow" xmlns="http://www.w3.org/2000/svg"><path fill-rule="evenodd" clip-rule="evenodd" d="M6.533 6.312a.777.777 0 0 1-1.009.004L0 1.45 1.003.546l5.018 4.421L10.986.5 12 1.393 6.533 6.312Z"/></svg><svg fill="none" viewBox="0 0 16 16" id="star" xmlns="http://www.w3.org/2000/svg"><path d="m8 .5 2.472 4.937L16 6.233l-4 3.841.944 5.426L8 12.937 3.056 15.5 4 10.074l-4-3.84 5.528-.797L8 .5Z" fill="#5C5F6A"/></svg><svg fill="none" viewBox="0 0 16 16" id="star-no-bg" xmlns="http://www.w3.org/2000/svg"><path d="m8 1.5 2.163 4.279 4.837.69-3.5 3.329.826 4.702L8 12.279 3.674 14.5 4.5 9.798 1 6.469l4.837-.69L8 1.5Z"/></svg><svg viewBox="0 0 24 25" id="user" xmlns="http://www.w3.org/2000/svg"><path fill-rule="evenodd" clip-rule="evenodd" d="M9.116 7.583a4.079 4.079 0 1 1 5.768 5.768 4.079 4.079 0 0 1-5.768-5.768ZM12 7.769a2.698 2.698 0 1 0 0 5.396 2.698 2.698 0 0 0 0-5.396Z"/><path fill-rule="evenodd" clip-rule="evenodd" d="M12 16.58a6.088 6.088 0 0 0-5.198 2.92.69.69 0 0 1-1.179-.718 7.467 7.467 0 0 1 12.754 0 .69.69 0 1 1-1.179.718A6.088 6.088 0 0 0 12 16.58Z"/><path fill-rule="evenodd" clip-rule="evenodd" d="M5.282 5.782a9.5 9.5 0 1 1 13.435 13.435A9.5 9.5 0 0 1 5.282 5.782ZM12 4.38a8.12 8.12 0 1 0 0 16.24 8.12 8.12 0 0 0 0-16.24Z"/></svg><svg fill="none" viewBox="0 0 43 32" id="visa" xmlns="http://www.w3.org/2000/svg"><g clip-path="url(#ra)"><path d="M27.515 9a8.17 8.17 0 0 1 3.052.577l-.463 2.926-.308-.143a5.638 5.638 0 0 0-2.534-.52c-1.343 0-1.946.591-1.96 1.168 0 .635.73 1.053 1.92 1.673 1.96.966 2.868 2.148 2.855 3.69-.028 2.813-2.352 4.63-5.922 4.63-1.526-.016-2.996-.348-3.794-.722l.476-3.043.448.217c1.106.505 1.834.72 3.192.72.98 0 2.03-.418 2.043-1.325 0-.592-.447-1.024-1.763-1.688-1.288-.649-3.01-1.73-2.982-3.676.014-2.639 2.38-4.484 5.74-4.484ZM14.831 22.798h3.402l2.128-13.552h-3.402l-2.128 13.552Z" fill="#2d2e33"/><path fill-rule="evenodd" clip-rule="evenodd" d="M39.288 9.246h-2.631c-.812 0-1.428.245-1.779 1.124l-5.053 12.428h3.57l.714-2.033h4.368c.098.476.406 2.033.406 2.033h3.15L39.288 9.246Zm-4.2 8.75 1.36-3.79c-.007.01.038-.116.104-.305.098-.28.243-.693.343-.993l.237 1.167s.645 3.244.785 3.922H35.088Z" fill="#2d2e33"/><path d="m8.657 18.487 3.332-9.24h3.598l-5.348 13.537H6.641L3.589 10.932c2.156 1.168 4.088 3.518 4.704 5.68l.364 1.875Z" fill="#2d2e33"/><path d="M5.563 9.246H.089l-.056.273c4.27 1.125 7.098 3.836 8.26 7.094l-1.19-6.228c-.196-.866-.798-1.11-1.54-1.14v.001Z" fill="#5C5F6A"/></g><defs><clipPath id="ra"><path fill="#fff" transform="translate(.033)" d="M0 0h42v32H0z"/></clipPath></defs></svg><svg viewBox="0 0 24 24" id="youtube" xmlns="http://www.w3.org/2000/svg"><path d="m10 15 5.19-3L10 9v6Zm11.56-7.83c.13.47.22 1.1.28 1.9.07.8.1 1.49.1 2.09L22 12c0 2.19-.16 3.8-.44 4.83-.25.9-.83 1.48-1.73 1.73-.47.13-1.33.22-2.65.28-1.3.07-2.49.1-3.59.1L12 19c-4.19 0-6.8-.16-7.83-.44-.9-.25-1.48-.83-1.73-1.73-.13-.47-.22-1.1-.28-1.9-.07-.8-.1-1.49-.1-2.09L2 12c0-2.19.16-3.8.44-4.83.25-.9.83-1.48 1.73-1.73.47-.13 1.33-.22 2.65-.28 1.3-.07 2.49-.1 3.59-.1L12 5c4.19 0 6.8.16 7.83.44.9.25 1.48.83 1.73 1.73Z"/></svg></svg>